<?xml version="1.0" encoding="UTF-8" standalone="no"?>
<!-- Created with Pixodesk SVG (https://pixodesk.com) -->
<svg xmlns="http://www.w3.org/2000/svg" viewBox="0 0 400 400" text-rendering="geometricPrecision" shape-rendering="geometricPrecision" fill="none">
  <path fill="#000000" stroke="#ed2c3c" stroke-width="2" transform="translate(117.4469, 46.6922)" d="M0,0C0,0,-6.2923,-18.0363,-11.0317,-29.0083C-15.7711,-39.9804,-24.4682,-46.212,-24.4682,-46.212C-24.4682,-46.212,-37.2661,-34.2407,-45.0017,-20.078C-52.7372,-5.9153,-56.4489,6.4409,-56.4489,6.4409L0,0z"/>
  <path fill="#000000" stroke="#ed2c3c" stroke-width="2" transform="translate(101.1139, 45.7195)" d="M0,0C0,0,-1.1527,-6.1816,-3.6956,-10.5109C-6.2385,-14.8403,-8.3213,-18.0582,-9.5336,-18.1879C-10.7459,-18.3177,-16.3463,-12.1983,-18.8419,-8.1766C-21.3375,-4.1549,-23.9251,2.9909,-23.9251,2.9909L0,0z"/>
  <path fill="#000000" stroke="#ed2c3c" stroke-width="2" transform="translate(311.1728, 46.6922)scale(-1, 1)translate(28.2245, 0)" d="M0,0C0,0,-6.2924,-18.0363,-11.0317,-29.0083C-15.771,-39.9803,-24.4681,-46.2119,-24.4681,-46.2119C-24.4681,-46.2119,-37.2661,-34.2407,-45.0016,-20.078C-52.7371,-5.9153,-56.4489,6.4409,-56.4489,6.4409L0,0z"/>
  <path fill="#000000" stroke="#ed2c3c" stroke-width="2" transform="translate(311.1017, 45.7194)scale(-1, 1)translate(11.9625, 0)" d="M0,0C0,0,-1.1527,-6.1816,-3.6956,-10.5109C-6.2385,-14.8402,-8.3213,-18.0582,-9.5335,-18.1879C-10.7457,-18.3176,-16.3463,-12.1983,-18.8418,-8.1766C-21.3373,-4.1549,-23.925,2.9908,-23.925,2.9908L0,0z"/>
  <path fill="#000000" stroke="#ed2c3c" stroke-width="2" transform="translate(199.8305, 91.6932)" d="M0,0C0,0,-16.1959,-28.3071,-57.1893,-40.7124C-98.1827,-53.1178,-142.4577,-46.8383,-167.242,-22.4145C-192.0262,2.0092,-209.5926,49.4784,-194.1495,87.4712C-178.7064,125.464,-168.9066,131.7647,-150.2906,150.1607C-131.6746,168.5568,-0.3181,302.5613,-0.3181,302.5613C-0.3181,302.5613,136.324,165.5588,155.3084,146.9693C174.2929,128.3798,192.0289,94.6732,197.9453,74.9227C203.8617,55.1721,197.8101,0.6892,166.9345,-23.6206C136.0589,-47.9304,89.2366,-51.5088,54.9018,-39.4852C20.567,-27.4615,0,0,0,0z"/>
  <path fill="#000000" stroke="#ed2c3c" stroke-width="2" transform="translate(198.8524, 143.324)" d="M0,0C0,0,-17.7731,-26.2527,-49.7169,-36.0816C-81.6608,-45.9105,-132.9284,-36.1585,-139.8415,-7.5758C-146.7546,21.007,-138.8405,65.773,-122.8714,79.9688C-106.9024,94.1646,-51.2438,110.824,2.1577,112.0911C55.5591,113.3581,117.0195,92.6574,128.5349,78.9418C140.0503,65.2263,156.0719,8.3047,132.6236,-18.3297C109.1753,-44.9642,62.1647,-44.1345,37.46,-32.1055C12.7553,-20.0766,0,0,0,0z"/>
  <path fill="#000000" stroke="#ed2c3c" stroke-width="2" transform="translate(199.3367, 196.8454)" d="M1.4589,0.1265C27.2592,0.1265,47.0706,-7.7945,50.512,-5.4038C53.9535,-3.0131,46.9293,17.0782,36.4087,27.5672C25.8881,38.0562,11.3291,42.1174,1.1166,42.1174C-9.096,42.1174,-21.4928,38.8562,-34.2374,27.8144C-46.982,16.7726,-52.4184,-2.7277,-49.2259,-5.4011C-46.0334,-8.0745,-25.6655,0.1265,1.4589,0.1265z"/>
  <path fill="#000000" stroke="#ed2c3c" stroke-width="2" transform="translate(175.5666, 227.831)" d="M0,0C0,0,6.45,6.5812,24.2047,6.5812C41.9594,6.5812,48.8345,-0.4093,48.8345,-0.4093C48.8345,-0.4093,47.688,-14.9226,25.093,-14.9226C2.498,-14.9226,0,0,0,0z"/>
  <path fill="#000000" stroke="#ed2c3c" stroke-width="2" transform="translate(139.5267, 147.2475)" d="M0,0C-9.0268,0,-12.2999,11.6326,-12.2999,21.1723C-12.2999,30.7121,-7.392,39.4129,0.151,39.4129C7.6939,39.4129,13.0685,31.7311,13.0685,20.4639C13.0685,9.1966,9.0268,0,0,0z"/>
  <path fill="#000000" stroke="#ed2c3c" stroke-width="2" transform="translate(259.9545, 147.2474)" d="M0,0C-9.0268,0,-12.2998,11.6326,-12.2998,21.1723C-12.2998,30.712,-7.392,39.4129,0.1509,39.4129C7.6938,39.4129,13.0684,31.731,13.0684,20.4638C13.0684,9.1966,9.0268,0,0,0z"/>
</svg>